<svg id="Layer_2" data-name="Layer 2" xmlns="http://www.w3.org/2000/svg" viewBox="0 0 36.47 62.25"><title>vynil</title><circle cx="25.75" cy="13.89" r="10.72" style="fill:#fff"/><circle cx="25.68" cy="13.89" r="9.9" style="fill:#231f20"/><path d="M78.48,10.85l.87-1.58,2.83,1.18-.74,1.9A4,4,0,0,0,78.48,10.85Z" transform="translate(-52.36 -1.49)" style="fill:#fff"/><path d="M52.36,60.47l2.13,3.26L70.36,52.91s5.09-4.15,4.94-8.26L73.82,29.13,75.3,26l-2.87-1.29-1.58,3.56,1.38,15.28s.94,3.41-5,8Z" transform="translate(-52.36 -1.49)" style="fill:#231f20"/><polygon points="7.94 54.21 9.73 57.06 11.64 55.76 9.79 53.1 7.94 54.21" style="fill:#fff"/><polygon points="2.87 59.88 3.38 60.6 5.29 59.36 4.75 58.64 2.87 59.88" style="fill:#fff"/><path d="M75.3,26l-2.87-1.29,2.75-6.05A3.49,3.49,0,0,0,78,19.77Z" transform="translate(-52.36 -1.49)" style="fill:#fff"/><circle cx="25.68" cy="13.89" r="4.55" style="fill:#fff;stroke:#231f20;stroke-miterlimit:10;stroke-width:0.25px"/><circle cx="25.68" cy="13.79" r="3.4" style="fill:#231f20"/><circle cx="25.68" cy="13.79" r="2.36" style="fill:#fff"/><polygon points="2.01 58.75 2.52 59.47 4.43 58.23 3.89 57.52 2.01 58.75" style="fill:#fff"/><polygon points="27 7.78 26.39 5.72 31.82 8.15 29.83 8.97 27 7.78" style="fill:#231f20;stroke:#fff;stroke-miterlimit:10;stroke-width:0.10000000149011612px"/><polygon points="26.39 5.72 29.08 0 34.28 2.35 31.82 8.15 26.39 5.72" style="fill:#fff"/><circle cx="31.71" cy="16.78" r="1.66" style="fill:#231f20"/><circle cx="31.71" cy="16.78" r="1.1" style="fill:#fff"/></svg>